<svg version="1.1" xmlns="http://www.w3.org/2000/svg" xmlns:xlink="http://www.w3.org/1999/xlink" width="1492" height="3252"><defs/><g><g transform="translate(-86,-54) scale(1,1)"><path fill="#ffffff" stroke="none" d="M 111.82072727272728 121.68 C 111.82072727272728 116.886167936 115.70656959767274 113 120.5 113 C 125.29343040232726 113 129.17927272727272 116.886167936 129.17927272727272 121.68 C 129.17927272727272 126.473832064 125.29343040232726 130.36 120.5 130.36 C 115.70656959767274 130.36 111.82072727272728 126.473832064 111.82072727272728 121.68 Z"/></g><g transform="translate(-86,-54) scale(1,1)"><path fill="none" stroke="#000000" d="M 111.82072727272728 121.68 C 111.82072727272728 116.886167936 115.70656959767274 113 120.5 113 C 125.29343040232726 113 129.17927272727272 116.886167936 129.17927272727272 121.68 C 129.17927272727272 126.473832064 125.29343040232726 130.36 120.5 130.36 C 115.70656959767274 130.36 111.82072727272728 126.473832064 111.82072727272728 121.68 Z" stroke-miterlimit="10"/></g><g transform="translate(-86,-54) scale(1,1)"><path fill="none" stroke="#000000" d="M 120.5 130.36 L 120.5 147.64" stroke-miterlimit="10"/></g><g transform="translate(-86,-54) scale(1,1)"><path fill="none" stroke="#000000" d="M 111.31018181818183 136.84 L 129.68981818181817 136.84" stroke-miterlimit="10"/></g><g transform="translate(-86,-54) scale(1,1)"><path fill="none" stroke="#000000" d="M 120.5 147.64 L 107.73636363636365 165" stroke-miterlimit="10"/></g><g transform="translate(-86,-54) scale(1,1)"><path fill="none" stroke="#000000" d="M 120.5 147.64 L 133.26363636363635 165" stroke-miterlimit="10"/></g><g transform="translate(-86,-54) scale(1,1)"><g><path fill="none" stroke="none"/><text fill="#000000" stroke="none" font-family="Arial" font-size="13px" font-style="normal" font-weight="bold" text-decoration="none" x="107" y="185.5">User</text></g></g><g transform="translate(-86,-54) scale(1,1)"><path fill="#C0C0C0" stroke="none" d="M 327 91 C 327 79.95430400000001 367.5182256 71 417.5 71 C 467.4817744 71 508 79.95430400000001 508 91 C 508 102.04569599999999 467.4817744 111 417.5 111 C 367.5182256 111 327 102.04569599999999 327 91 Z" opacity="0.2"/></g><g transform="translate(-86,-54) scale(1,1)"><path fill="#ffffff" stroke="none" d="M 320 84 C 320 72.95430400000001 360.5182256 64 410.5 64 C 460.4817744 64 501 72.95430400000001 501 84 C 501 95.04569599999999 460.4817744 104 410.5 104 C 360.5182256 104 320 95.04569599999999 320 84 Z"/></g><g transform="translate(-86,-54) scale(1,1)"><path fill="none" stroke="#000000" d="M 320 84 C 320 72.95430400000001 360.5182256 64 410.5 64 C 460.4817744 64 501 72.95430400000001 501 84 C 501 95.04569599999999 460.4817744 104 410.5 104 C 360.5182256 104 320 95.04569599999999 320 84 Z" stroke-miterlimit="10"/></g><g transform="translate(-86,-54) scale(1,1)"><g><path fill="none" stroke="none"/><text fill="#000000" stroke="none" font-family="Arial" font-size="13px" font-style="normal" font-weight="bold" text-decoration="none" x="354.5" y="91">Vào xem trang web</text></g></g><g transform="translate(-86,-54) scale(1,1)"><path fill="#C0C0C0" stroke="none" d="M 327 160 C 327 150.6111584 367.5182256 143 417.5 143 C 467.4817744 143 508 150.6111584 508 160 C 508 169.3888416 467.4817744 177 417.5 177 C 367.5182256 177 327 169.3888416 327 160 Z" opacity="0.2"/></g><g transform="translate(-86,-54) scale(1,1)"><path fill="#ffffff" stroke="none" d="M 320 153 C 320 143.6111584 360.5182256 136 410.5 136 C 460.4817744 136 501 143.6111584 501 153 C 501 162.3888416 460.4817744 170 410.5 170 C 360.5182256 170 320 162.3888416 320 153 Z"/></g><g transform="translate(-86,-54) scale(1,1)"><path fill="none" stroke="#000000" d="M 320 153 C 320 143.6111584 360.5182256 136 410.5 136 C 460.4817744 136 501 143.6111584 501 153 C 501 162.3888416 460.4817744 170 410.5 170 C 360.5182256 170 320 162.3888416 320 153 Z" stroke-miterlimit="10"/></g><g transform="translate(-86,-54) scale(1,1)"><g><path fill="none" stroke="none"/><text fill="#000000" stroke="none" font-family="Arial" font-size="13px" font-style="normal" font-weight="bold" text-decoration="none" x="354.5" y="160">Tìm kiếm khoá học</text></g></g><g transform="translate(-86,-54) scale(1,1)"><path fill="#C0C0C0" stroke="none" d="M 327 232 C 327 222.6111584 367.5182256 215 417.5 215 C 467.4817744 215 508 222.6111584 508 232 C 508 241.3888416 467.4817744 249 417.5 249 C 367.5182256 249 327 241.3888416 327 232 Z" opacity="0.2"/></g><g transform="translate(-86,-54) scale(1,1)"><path fill="#ffffff" stroke="none" d="M 320 225 C 320 215.6111584 360.5182256 208 410.5 208 C 460.4817744 208 501 215.6111584 501 225 C 501 234.3888416 460.4817744 242 410.5 242 C 360.5182256 242 320 234.3888416 320 225 Z"/></g><g transform="translate(-86,-54) scale(1,1)"><path fill="none" stroke="#000000" d="M 320 225 C 320 215.6111584 360.5182256 208 410.5 208 C 460.4817744 208 501 215.6111584 501 225 C 501 234.3888416 460.4817744 242 410.5 242 C 360.5182256 242 320 234.3888416 320 225 Z" stroke-miterlimit="10"/></g><g transform="translate(-86,-54) scale(1,1)"><g><path fill="none" stroke="none"/><text fill="#000000" stroke="none" font-family="Arial" font-size="13px" font-style="normal" font-weight="bold" text-decoration="none" x="386.5" y="232">Đăng ký</text></g></g><g transform="translate(-86,-54) scale(1,1)"><path fill="#C0C0C0" stroke="none" d="M 359 296 C 359 286.6111584 382.9527632 279 412.5 279 C 442.0472368 279 466 286.6111584 466 296 C 466 305.3888416 442.0472368 313 412.5 313 C 382.9527632 313 359 305.3888416 359 296 Z" opacity="0.2"/></g><g transform="translate(-86,-54) scale(1,1)"><path fill="#ffffff" stroke="none" d="M 352 289 C 352 279.6111584 375.9527632 272 405.5 272 C 435.0472368 272 459 279.6111584 459 289 C 459 298.3888416 435.0472368 306 405.5 306 C 375.9527632 306 352 298.3888416 352 289 Z"/></g><g transform="translate(-86,-54) scale(1,1)"><path fill="none" stroke="#000000" d="M 352 289 C 352 279.6111584 375.9527632 272 405.5 272 C 435.0472368 272 459 279.6111584 459 289 C 459 298.3888416 435.0472368 306 405.5 306 C 375.9527632 306 352 298.3888416 352 289 Z" stroke-miterlimit="10"/></g><g transform="translate(-86,-54) scale(1,1)"><g><path fill="none" stroke="none"/><text fill="#000000" stroke="none" font-family="Arial" font-size="13px" font-style="normal" font-weight="bold" text-decoration="none" x="374.5" y="296">Đăng nhập</text></g></g><g transform="translate(-86,-54) scale(1,1)"><path fill="#C0C0C0" stroke="none" d="M 359 368 C 359 358.6111584 395.7126464 351 441 351 C 486.2873536 351 523 358.6111584 523 368 C 523 377.3888416 486.2873536 385 441 385 C 395.7126464 385 359 377.3888416 359 368 Z" opacity="0.2"/></g><g transform="translate(-86,-54) scale(1,1)"><path fill="#ffffff" stroke="none" d="M 352 361 C 352 351.6111584 388.7126464 344 434 344 C 479.2873536 344 516 351.6111584 516 361 C 516 370.3888416 479.2873536 378 434 378 C 388.7126464 378 352 370.3888416 352 361 Z"/></g><g transform="translate(-86,-54) scale(1,1)"><path fill="none" stroke="#000000" d="M 352 361 C 352 351.6111584 388.7126464 344 434 344 C 479.2873536 344 516 351.6111584 516 361 C 516 370.3888416 479.2873536 378 434 378 C 388.7126464 378 352 370.3888416 352 361 Z" stroke-miterlimit="10"/></g><g transform="translate(-86,-54) scale(1,1)"><g><path fill="none" stroke="none"/><text fill="#000000" stroke="none" font-family="Arial" font-size="13px" font-style="normal" font-weight="bold" text-decoration="none" x="385" y="368">Quản lý giỏ hàng</text></g></g><g transform="translate(-86,-54) scale(1,1)"><path fill="#C0C0C0" stroke="none" d="M 591 376 C 591 366.6111584 613.1619024 359 640.5 359 C 667.8380976 359 690 366.6111584 690 376 C 690 385.3888416 667.8380976 393 640.5 393 C 613.1619024 393 591 385.3888416 591 376 Z" opacity="0.2"/></g><g transform="translate(-86,-54) scale(1,1)"><path fill="#ffffff" stroke="none" d="M 584 369 C 584 359.6111584 606.1619024 352 633.5 352 C 660.8380976 352 683 359.6111584 683 369 C 683 378.3888416 660.8380976 386 633.5 386 C 606.1619024 386 584 378.3888416 584 369 Z"/></g><g transform="translate(-86,-54) scale(1,1)"><path fill="none" stroke="#000000" d="M 584 369 C 584 359.6111584 606.1619024 352 633.5 352 C 660.8380976 352 683 359.6111584 683 369 C 683 378.3888416 660.8380976 386 633.5 386 C 606.1619024 386 584 378.3888416 584 369 Z" stroke-miterlimit="10"/></g><g transform="translate(-86,-54) scale(1,1)"><g><path fill="none" stroke="none"/><text fill="#000000" stroke="none" font-family="Arial" font-size="13px" font-style="normal" font-weight="bold" text-decoration="none" x="605" y="376">Mua hàng</text></g></g><g transform="translate(-86,-54) scale(1,1)"><path fill="#C0C0C0" stroke="none" d="M 359 456 C 359 446.6111584 384.0720512 439 415 439 C 445.9279488 439 471 446.6111584 471 456 C 471 465.3888416 445.9279488 473 415 473 C 384.0720512 473 359 465.3888416 359 456 Z" opacity="0.2"/></g><g transform="translate(-86,-54) scale(1,1)"><path fill="#ffffff" stroke="none" d="M 352 449 C 352 439.6111584 377.0720512 432 408 432 C 438.9279488 432 464 439.6111584 464 449 C 464 458.3888416 438.9279488 466 408 466 C 377.0720512 466 352 458.3888416 352 449 Z"/></g><g transform="translate(-86,-54) scale(1,1)"><path fill="none" stroke="#000000" d="M 352 449 C 352 439.6111584 377.0720512 432 408 432 C 438.9279488 432 464 439.6111584 464 449 C 464 458.3888416 438.9279488 466 408 466 C 377.0720512 466 352 458.3888416 352 449 Z" stroke-miterlimit="10"/></g><g transform="translate(-86,-54) scale(1,1)"><g><path fill="none" stroke="none"/><text fill="#000000" stroke="none" font-family="Arial" font-size="13px" font-style="normal" font-weight="bold" text-decoration="none" x="375.5" y="456">Thanh toán</text></g></g><g transform="translate(-86,-54) scale(1,1)"><path fill="#C0C0C0" stroke="none" d="M 583 536 C 583 526.6111584 604.7141872 519 631.5 519 C 658.2858128 519 680 526.6111584 680 536 C 680 545.3888416 658.2858128 553 631.5 553 C 604.7141872 553 583 545.3888416 583 536 Z" opacity="0.2"/></g><g transform="translate(-86,-54) scale(1,1)"><path fill="#ffffff" stroke="none" d="M 576 529 C 576 519.6111584 597.7141872 512 624.5 512 C 651.2858128 512 673 519.6111584 673 529 C 673 538.3888416 651.2858128 546 624.5 546 C 597.7141872 546 576 538.3888416 576 529 Z"/></g><g transform="translate(-86,-54) scale(1,1)"><path fill="none" stroke="#000000" d="M 576 529 C 576 519.6111584 597.7141872 512 624.5 512 C 651.2858128 512 673 519.6111584 673 529 C 673 538.3888416 651.2858128 546 624.5 546 C 597.7141872 546 576 538.3888416 576 529 Z" stroke-miterlimit="10"/></g><g transform="translate(-86,-54) scale(1,1)"><g><path fill="none" stroke="none"/><text fill="#000000" stroke="none" font-family="Arial" font-size="13px" font-style="normal" font-weight="bold" text-decoration="none" x="599" y="536">Tiền mặt</text></g></g><g transform="translate(-86,-54) scale(1,1)"><path fill="#C0C0C0" stroke="none" d="M 591 464 C 591 454.6111584 617.1913392 447 649.5 447 C 681.8086608 447 708 454.6111584 708 464 C 708 473.3888416 681.8086608 481 649.5 481 C 617.1913392 481 591 473.3888416 591 464 Z" opacity="0.2"/></g><g transform="translate(-86,-54) scale(1,1)"><path fill="#ffffff" stroke="none" d="M 584 457 C 584 447.6111584 610.1913392 440 642.5 440 C 674.8086608 440 701 447.6111584 701 457 C 701 466.3888416 674.8086608 474 642.5 474 C 610.1913392 474 584 466.3888416 584 457 Z"/></g><g transform="translate(-86,-54) scale(1,1)"><path fill="none" stroke="#000000" d="M 584 457 C 584 447.6111584 610.1913392 440 642.5 440 C 674.8086608 440 701 447.6111584 701 457 C 701 466.3888416 674.8086608 474 642.5 474 C 610.1913392 474 584 466.3888416 584 457 Z" stroke-miterlimit="10"/></g><g transform="translate(-86,-54) scale(1,1)"><g><path fill="none" stroke="none"/><text fill="#000000" stroke="none" font-family="Arial" font-size="13px" font-style="normal" font-weight="bold" text-decoration="none" x="608" y="464">Ngân lượng</text></g></g><g transform="translate(-86,-54) scale(1,1)"><path fill="#C0C0C0" stroke="none" d="M 295 528 C 295 518.6111584 316.71418719999997 511 343.5 511 C 370.28581280000003 511 392 518.6111584 392 528 C 392 537.3888416 370.28581280000003 545 343.5 545 C 316.71418719999997 545 295 537.3888416 295 528 Z" opacity="0.2"/></g><g transform="translate(-86,-54) scale(1,1)"><path fill="#ffffff" stroke="none" d="M 288 521 C 288 511.6111584 309.71418719999997 504 336.5 504 C 363.28581280000003 504 385 511.6111584 385 521 C 385 530.3888416 363.28581280000003 538 336.5 538 C 309.71418719999997 538 288 530.3888416 288 521 Z"/></g><g transform="translate(-86,-54) scale(1,1)"><path fill="none" stroke="#000000" d="M 288 521 C 288 511.6111584 309.71418719999997 504 336.5 504 C 363.28581280000003 504 385 511.6111584 385 521 C 385 530.3888416 363.28581280000003 538 336.5 538 C 309.71418719999997 538 288 530.3888416 288 521 Z" stroke-miterlimit="10"/></g><g transform="translate(-86,-54) scale(1,1)"><g><path fill="none" stroke="none"/><text fill="#000000" stroke="none" font-family="Arial" font-size="13px" font-style="normal" font-weight="bold" text-decoration="none" x="314.5" y="528">Học bài</text></g></g><g transform="translate(-86,-54) scale(1,1)"><path fill="#C0C0C0" stroke="none" d="M 263 688 C 263 678.6111584 284.71418719999997 671 311.5 671 C 338.28581280000003 671 360 678.6111584 360 688 C 360 697.3888416 338.28581280000003 705 311.5 705 C 284.71418719999997 705 263 697.3888416 263 688 Z" opacity="0.2"/></g><g transform="translate(-86,-54) scale(1,1)"><path fill="#ffffff" stroke="none" d="M 256 681 C 256 671.6111584 277.71418719999997 664 304.5 664 C 331.28581280000003 664 353 671.6111584 353 681 C 353 690.3888416 331.28581280000003 698 304.5 698 C 277.71418719999997 698 256 690.3888416 256 681 Z"/></g><g transform="translate(-86,-54) scale(1,1)"><path fill="none" stroke="#000000" d="M 256 681 C 256 671.6111584 277.71418719999997 664 304.5 664 C 331.28581280000003 664 353 671.6111584 353 681 C 353 690.3888416 331.28581280000003 698 304.5 698 C 277.71418719999997 698 256 690.3888416 256 681 Z" stroke-miterlimit="10"/></g><g transform="translate(-86,-54) scale(1,1)"><g><path fill="none" stroke="none"/><text fill="#000000" stroke="none" font-family="Arial" font-size="13px" font-style="normal" font-weight="bold" text-decoration="none" x="291" y="688">Chat</text></g></g><g transform="translate(-86,-54) scale(1,1)"><path fill="#C0C0C0" stroke="none" d="M 695 88 C 695 78.6111584 746.9349632 71 811 71 C 875.0650368 71 927 78.6111584 927 88 C 927 97.3888416 875.0650368 105 811 105 C 746.9349632 105 695 97.3888416 695 88 Z" opacity="0.2"/></g><g transform="translate(-86,-54) scale(1,1)"><path fill="#ffffff" stroke="none" d="M 688 81 C 688 71.6111584 739.9349632 64 804 64 C 868.0650368 64 920 71.6111584 920 81 C 920 90.3888416 868.0650368 98 804 98 C 739.9349632 98 688 90.3888416 688 81 Z"/></g><g transform="translate(-86,-54) scale(1,1)"><path fill="none" stroke="#000000" d="M 688 81 C 688 71.6111584 739.9349632 64 804 64 C 868.0650368 64 920 71.6111584 920 81 C 920 90.3888416 868.0650368 98 804 98 C 739.9349632 98 688 90.3888416 688 81 Z" stroke-miterlimit="10"/></g><g transform="translate(-86,-54) scale(1,1)"><g><path fill="none" stroke="none"/><text fill="#000000" stroke="none" font-family="Arial" font-size="13px" font-style="normal" font-weight="bold" text-decoration="none" x="732" y="88">Tìm theo chuyên nghành</text></g></g><g transform="translate(-86,-54) scale(1,1)"><path fill="#C0C0C0" stroke="none" d="M 703 200 C 703 190.6111584 747.3238048 183 802 183 C 856.6761952 183 901 190.6111584 901 200 C 901 209.3888416 856.6761952 217 802 217 C 747.3238048 217 703 209.3888416 703 200 Z" opacity="0.2"/></g><g transform="translate(-86,-54) scale(1,1)"><path fill="#ffffff" stroke="none" d="M 696 193 C 696 183.6111584 740.3238048 176 795 176 C 849.6761952 176 894 183.6111584 894 193 C 894 202.3888416 849.6761952 210 795 210 C 740.3238048 210 696 202.3888416 696 193 Z"/></g><g transform="translate(-86,-54) scale(1,1)"><path fill="none" stroke="#000000" d="M 696 193 C 696 183.6111584 740.3238048 176 795 176 C 849.6761952 176 894 183.6111584 894 193 C 894 202.3888416 849.6761952 210 795 210 C 740.3238048 210 696 202.3888416 696 193 Z" stroke-miterlimit="10"/></g><g transform="translate(-86,-54) scale(1,1)"><g><path fill="none" stroke="none"/><text fill="#000000" stroke="none" font-family="Arial" font-size="13px" font-style="normal" font-weight="bold" text-decoration="none" x="733.5" y="200">Tìm theo mức độ hot</text></g></g><g transform="translate(-86,-54) scale(1,1)"><path fill="#ffffff" stroke="none" d="M 1052.3207272727273 473.68 C 1052.3207272727273 468.886167936 1056.2065695976728 465 1061 465 C 1065.7934304023272 465 1069.6792727272727 468.886167936 1069.6792727272727 473.68 C 1069.6792727272727 478.473832064 1065.7934304023272 482.36 1061 482.36 C 1056.2065695976728 482.36 1052.3207272727273 478.473832064 1052.3207272727273 473.68 Z"/></g><g transform="translate(-86,-54) scale(1,1)"><path fill="none" stroke="#000000" d="M 1052.3207272727273 473.68 C 1052.3207272727273 468.886167936 1056.2065695976728 465 1061 465 C 1065.7934304023272 465 1069.6792727272727 468.886167936 1069.6792727272727 473.68 C 1069.6792727272727 478.473832064 1065.7934304023272 482.36 1061 482.36 C 1056.2065695976728 482.36 1052.3207272727273 478.473832064 1052.3207272727273 473.68 Z" stroke-miterlimit="10"/></g><g transform="translate(-86,-54) scale(1,1)"><path fill="none" stroke="#000000" d="M 1061 482.36 L 1061 499.64" stroke-miterlimit="10"/></g><g transform="translate(-86,-54) scale(1,1)"><path fill="none" stroke="#000000" d="M 1051.8101818181817 488.84 L 1070.1898181818183 488.84" stroke-miterlimit="10"/></g><g transform="translate(-86,-54) scale(1,1)"><path fill="none" stroke="#000000" d="M 1061 499.64 L 1048.2363636363636 517" stroke-miterlimit="10"/></g><g transform="translate(-86,-54) scale(1,1)"><path fill="none" stroke="#000000" d="M 1061 499.64 L 1073.7636363636364 517" stroke-miterlimit="10"/></g><g transform="translate(-86,-54) scale(1,1)"><g><path fill="none" stroke="none"/><text fill="#000000" stroke="none" font-family="Arial" font-size="13px" font-style="normal" font-weight="bold" text-decoration="none" x="1024" y="537.5">Adminstrator</text></g></g><g transform="translate(-86,-54) scale(1,1)"><path fill="#ffffff" stroke="none" d="M 1060.3207272727273 617.6800000000001 C 1060.3207272727273 612.8861679360001 1064.2065695976728 609 1069 609 C 1073.7934304023272 609 1077.6792727272727 612.8861679360001 1077.6792727272727 617.6800000000001 C 1077.6792727272727 622.473832064 1073.7934304023272 626.36 1069 626.36 C 1064.2065695976728 626.36 1060.3207272727273 622.473832064 1060.3207272727273 617.6800000000001 Z"/></g><g transform="translate(-86,-54) scale(1,1)"><path fill="none" stroke="#000000" d="M 1060.3207272727273 617.6800000000001 C 1060.3207272727273 612.8861679360001 1064.2065695976728 609 1069 609 C 1073.7934304023272 609 1077.6792727272727 612.8861679360001 1077.6792727272727 617.6800000000001 C 1077.6792727272727 622.473832064 1073.7934304023272 626.36 1069 626.36 C 1064.2065695976728 626.36 1060.3207272727273 622.473832064 1060.3207272727273 617.6800000000001 Z" stroke-miterlimit="10"/></g><g transform="translate(-86,-54) scale(1,1)"><path fill="none" stroke="#000000" d="M 1069 626.36 L 1069 643.64" stroke-miterlimit="10"/></g><g transform="translate(-86,-54) scale(1,1)"><path fill="none" stroke="#000000" d="M 1059.8101818181817 632.84 L 1078.1898181818183 632.84" stroke-miterlimit="10"/></g><g transform="translate(-86,-54) scale(1,1)"><path fill="none" stroke="#000000" d="M 1069 643.64 L 1056.2363636363636 661" stroke-miterlimit="10"/></g><g transform="translate(-86,-54) scale(1,1)"><path fill="none" stroke="#000000" d="M 1069 643.64 L 1081.7636363636364 661" stroke-miterlimit="10"/></g><g transform="translate(-86,-54) scale(1,1)"><g><path fill="none" stroke="none"/><text fill="#000000" stroke="none" font-family="Arial" font-size="13px" font-style="normal" font-weight="bold" text-decoration="none" x="1000.5" y="681.5">Moderater Management</text></g></g><g transform="translate(-86,-54) scale(1,1)"><path fill="#C0C0C0" stroke="none" d="M 775 448 C 775 438.6111584 817.3090864 431 869.5 431 C 921.6909136 431 964 438.6111584 964 448 C 964 457.3888416 921.6909136 465 869.5 465 C 817.3090864 465 775 457.3888416 775 448 Z" opacity="0.2"/></g><g transform="translate(-86,-54) scale(1,1)"><path fill="#ffffff" stroke="none" d="M 768 441 C 768 431.6111584 810.3090864 424 862.5 424 C 914.6909136 424 957 431.6111584 957 441 C 957 450.3888416 914.6909136 458 862.5 458 C 810.3090864 458 768 450.3888416 768 441 Z"/></g><g transform="translate(-86,-54) scale(1,1)"><path fill="none" stroke="#000000" d="M 768 441 C 768 431.6111584 810.3090864 424 862.5 424 C 914.6909136 424 957 431.6111584 957 441 C 957 450.3888416 914.6909136 458 862.5 458 C 810.3090864 458 768 450.3888416 768 441 Z" stroke-miterlimit="10"/></g><g transform="translate(-86,-54) scale(1,1)"><g><path fill="none" stroke="none"/><text fill="#000000" stroke="none" font-family="Arial" font-size="13px" font-style="normal" font-weight="bold" text-decoration="none" x="804.5" y="448">Quản lý phân quyền</text></g></g><g transform="translate(-86,-54) scale(1,1)"><path fill="#C0C0C0" stroke="none" d="M 631 760 C 631 750.6111584 668.3842192 743 714.5 743 C 760.6157808 743 798 750.6111584 798 760 C 798 769.3888416 760.6157808 777 714.5 777 C 668.3842192 777 631 769.3888416 631 760 Z" opacity="0.2"/></g><g transform="translate(-86,-54) scale(1,1)"><path fill="#ffffff" stroke="none" d="M 624 753 C 624 743.6111584 661.3842192 736 707.5 736 C 753.6157808 736 791 743.6111584 791 753 C 791 762.3888416 753.6157808 770 707.5 770 C 661.3842192 770 624 762.3888416 624 753 Z"/></g><g transform="translate(-86,-54) scale(1,1)"><path fill="none" stroke="#000000" d="M 624 753 C 624 743.6111584 661.3842192 736 707.5 736 C 753.6157808 736 791 743.6111584 791 753 C 791 762.3888416 753.6157808 770 707.5 770 C 661.3842192 770 624 762.3888416 624 753 Z" stroke-miterlimit="10"/></g><g transform="translate(-86,-54) scale(1,1)"><g><path fill="none" stroke="none"/><text fill="#000000" stroke="none" font-family="Arial" font-size="13px" font-style="normal" font-weight="bold" text-decoration="none" x="656.5" y="760">Quản lý khoá học</text></g></g><g transform="translate(-86,-54) scale(1,1)"><path fill="#C0C0C0" stroke="none" d="M 559 832 C 559 822.6111584 615.4121152 815 685 815 C 754.5878848 815 811 822.6111584 811 832 C 811 841.3888416 754.5878848 849 685 849 C 615.4121152 849 559 841.3888416 559 832 Z" opacity="0.2"/></g><g transform="translate(-86,-54) scale(1,1)"><path fill="#ffffff" stroke="none" d="M 552 825 C 552 815.6111584 608.4121152 808 678 808 C 747.5878848 808 804 815.6111584 804 825 C 804 834.3888416 747.5878848 842 678 842 C 608.4121152 842 552 834.3888416 552 825 Z"/></g><g transform="translate(-86,-54) scale(1,1)"><path fill="none" stroke="#000000" d="M 552 825 C 552 815.6111584 608.4121152 808 678 808 C 747.5878848 808 804 815.6111584 804 825 C 804 834.3888416 747.5878848 842 678 842 C 608.4121152 842 552 834.3888416 552 825 Z" stroke-miterlimit="10"/></g><g transform="translate(-86,-54) scale(1,1)"><g><path fill="none" stroke="none"/><text fill="#000000" stroke="none" font-family="Arial" font-size="13px" font-style="normal" font-weight="bold" text-decoration="none" x="600.5" y="832">Quản lý nội dung khoá học</text></g></g><g transform="translate(-86,-54) scale(1,1)"><path fill="#C0C0C0" stroke="none" d="M 607 936 C 607 926.6111584 663.4121152 919 733 919 C 802.5878848 919 859 926.6111584 859 936 C 859 945.3888416 802.5878848 953 733 953 C 663.4121152 953 607 945.3888416 607 936 Z" opacity="0.2"/></g><g transform="translate(-86,-54) scale(1,1)"><path fill="#ffffff" stroke="none" d="M 600 929 C 600 919.6111584 656.4121152 912 726 912 C 795.5878848 912 852 919.6111584 852 929 C 852 938.3888416 795.5878848 946 726 946 C 656.4121152 946 600 938.3888416 600 929 Z"/></g><g transform="translate(-86,-54) scale(1,1)"><path fill="none" stroke="#000000" d="M 600 929 C 600 919.6111584 656.4121152 912 726 912 C 795.5878848 912 852 919.6111584 852 929 C 852 938.3888416 795.5878848 946 726 946 C 656.4121152 946 600 938.3888416 600 929 Z" stroke-miterlimit="10"/></g><g transform="translate(-86,-54) scale(1,1)"><g><path fill="none" stroke="none"/><text fill="#000000" stroke="none" font-family="Arial" font-size="13px" font-style="normal" font-weight="bold" text-decoration="none" x="648.5" y="936">Quản lý thông tin sinh viên</text></g></g><g transform="translate(-86,-54) scale(1,1)"><path fill="#C0C0C0" stroke="none" d="M 775 1024 C 775 1014.6111584 815.294368 1007 865 1007 C 914.705632 1007 955 1014.6111584 955 1024 C 955 1033.3888416 914.705632 1041 865 1041 C 815.294368 1041 775 1033.3888416 775 1024 Z" opacity="0.2"/></g><g transform="translate(-86,-54) scale(1,1)"><path fill="#ffffff" stroke="none" d="M 768 1017 C 768 1007.6111584 808.294368 1000 858 1000 C 907.705632 1000 948 1007.6111584 948 1017 C 948 1026.3888416 907.705632 1034 858 1034 C 808.294368 1034 768 1026.3888416 768 1017 Z"/></g><g transform="translate(-86,-54) scale(1,1)"><path fill="none" stroke="#000000" d="M 768 1017 C 768 1007.6111584 808.294368 1000 858 1000 C 907.705632 1000 948 1007.6111584 948 1017 C 948 1026.3888416 907.705632 1034 858 1034 C 808.294368 1034 768 1026.3888416 768 1017 Z" stroke-miterlimit="10"/></g><g transform="translate(-86,-54) scale(1,1)"><g><path fill="none" stroke="none"/><text fill="#000000" stroke="none" font-family="Arial" font-size="13px" font-style="normal" font-weight="bold" text-decoration="none" x="803" y="1024">Quản lý thanh toán</text></g></g><g transform="translate(-86,-54) scale(1,1)"><path fill="#C0C0C0" stroke="none" d="M 591 1112 C 591 1102.6111584 612.7141872 1095 639.5 1095 C 666.2858128 1095 688 1102.6111584 688 1112 C 688 1121.3888416 666.2858128 1129 639.5 1129 C 612.7141872 1129 591 1121.3888416 591 1112 Z" opacity="0.2"/></g><g transform="translate(-86,-54) scale(1,1)"><path fill="#ffffff" stroke="none" d="M 584 1105 C 584 1095.6111584 605.7141872 1088 632.5 1088 C 659.2858128 1088 681 1095.6111584 681 1105 C 681 1114.3888416 659.2858128 1122 632.5 1122 C 605.7141872 1122 584 1114.3888416 584 1105 Z"/></g><g transform="translate(-86,-54) scale(1,1)"><path fill="none" stroke="#000000" d="M 584 1105 C 584 1095.6111584 605.7141872 1088 632.5 1088 C 659.2858128 1088 681 1095.6111584 681 1105 C 681 1114.3888416 659.2858128 1122 632.5 1122 C 605.7141872 1122 584 1114.3888416 584 1105 Z" stroke-miterlimit="10"/></g><g transform="translate(-86,-54) scale(1,1)"><g><path fill="none" stroke="none"/><text fill="#000000" stroke="none" font-family="Arial" font-size="13px" font-style="normal" font-weight="bold" text-decoration="none" x="609" y="1112">Thu tiền</text></g></g><g transform="translate(-86,-54) scale(1,1)"><path fill="#C0C0C0" stroke="none" d="M 799 1160 C 799 1150.6111584 843.3238048 1143 898 1143 C 952.6761952 1143 997 1150.6111584 997 1160 C 997 1169.3888416 952.6761952 1177 898 1177 C 843.3238048 1177 799 1169.3888416 799 1160 Z" opacity="0.2"/></g><g transform="translate(-86,-54) scale(1,1)"><path fill="#ffffff" stroke="none" d="M 792 1153 C 792 1143.6111584 836.3238048 1136 891 1136 C 945.6761952 1136 990 1143.6111584 990 1153 C 990 1162.3888416 945.6761952 1170 891 1170 C 836.3238048 1170 792 1162.3888416 792 1153 Z"/></g><g transform="translate(-86,-54) scale(1,1)"><path fill="none" stroke="#000000" d="M 792 1153 C 792 1143.6111584 836.3238048 1136 891 1136 C 945.6761952 1136 990 1143.6111584 990 1153 C 990 1162.3888416 945.6761952 1170 891 1170 C 836.3238048 1170 792 1162.3888416 792 1153 Z" stroke-miterlimit="10"/></g><g transform="translate(-86,-54) scale(1,1)"><g><path fill="none" stroke="none"/><text fill="#000000" stroke="none" font-family="Arial" font-size="13px" font-style="normal" font-weight="bold" text-decoration="none" x="830.5" y="1160">Theo dõi chuyển tiền</text></g></g><g transform="translate(-86,-54) scale(1,1)"><path fill="none" stroke="#000000" d="M 146 145 L 319 105" stroke-miterlimit="10"/></g><g transform="translate(-86,-54) scale(1,1)"><path fill="none" stroke="#000000" d="M 146 151 L 319 152" stroke-miterlimit="10"/></g><g transform="translate(-86,-54) scale(1,1)"><path fill="none" stroke="#000000" d="M 146 158 L 339 207" stroke-miterlimit="10"/></g><g transform="translate(-86,-54) scale(1,1)"><path fill="none" stroke="#000000" d="M 146 164 L 368 271" stroke-miterlimit="10"/></g><g transform="translate(-86,-54) scale(1,1)"><path fill="none" stroke="#000000" d="M 146 168 L 407 343" stroke-miterlimit="10"/></g><g transform="translate(-86,-54) scale(1,1)"><path fill="none" stroke="#000000" d="M 144 192 L 325 503" stroke-miterlimit="10"/></g><g transform="translate(-86,-54) scale(1,1)"><path fill="none" stroke="#000000" d="M 134 192 L 298 663" stroke-miterlimit="10"/></g><g transform="translate(-86,-54) scale(1,1)"><path fill="none" stroke="#000000" d="M 1015 489 L 920 459" stroke-miterlimit="10"/></g><g transform="translate(-86,-54) scale(1,1)"><path fill="none" stroke="#000000" d="M 991 650 L 354 679" stroke-miterlimit="10"/></g><g transform="translate(-86,-54) scale(1,1)"><path fill="none" stroke="#000000" d="M 1015 514 L 354 669" stroke-miterlimit="10"/></g><g transform="translate(-86,-54) scale(1,1)"><path fill="none" stroke="#000000" d="M 991 670 L 768 735" stroke-miterlimit="10"/></g><g transform="translate(-86,-54) scale(1,1)"><path fill="none" stroke="#000000" d="M 991 683 L 718 807" stroke-miterlimit="10"/></g><g transform="translate(-86,-54) scale(1,1)"><path fill="none" stroke="#000000" d="M 1019 688 L 748 911" stroke-miterlimit="10"/></g><g transform="translate(-86,-54) scale(1,1)"><path fill="none" stroke="#000000" d="M 1046 688 L 868 999" stroke-miterlimit="10"/></g><g transform="translate(-86,-54) scale(1,1)"><path fill="none" stroke="#000000" d="M 502 163 L 695 183" stroke-miterlimit="10"/></g><g transform="translate(-86,-54) scale(1,1)"><path fill="#FFFFFF" stroke="none" d="M 673.9151195149668 189.2791571832425 L 695 183 L 675.6507034041181 172.53077265293211"/></g><g transform="translate(-86,-54) scale(1,1)"><path fill="none" stroke="#000000" d="M 673.9151195149668 189.2791571832425 L 695 183 L 675.6507034041181 172.53077265293211 L 673.9151195149668 189.2791571832425" stroke-miterlimit="10"/></g><g transform="translate(-86,-54) scale(1,1)"><path fill="none" stroke="#000000" d="M 502 136 L 706 99" stroke-miterlimit="10"/></g><g transform="translate(-86,-54) scale(1,1)"><path fill="#FFFFFF" stroke="none" d="M 687.5034025857454 110.9111663616538 L 706 99 L 684.4984640333365 94.34339704566956"/></g><g transform="translate(-86,-54) scale(1,1)"><path fill="none" stroke="#000000" d="M 687.5034025857454 110.9111663616538 L 706 99 L 684.4984640333365 94.34339704566956 L 687.5034025857454 110.9111663616538" stroke-miterlimit="10"/></g><g transform="translate(-86,-54) scale(1,1)"><path fill="none" stroke="#000000" d="M 413 431 L 429 379" stroke-miterlimit="10" stroke-dasharray="3"/></g><g transform="translate(-86,-54) scale(1,1)"><path fill="none" stroke="#000000" d="M 430.03466984607826 389.95123090385806 L 429 379 L 421.98793242999346 387.4753116989089" stroke-miterlimit="10"/></g><g transform="translate(-86,-54) scale(1,1)"><g><path fill="none" stroke="none"/><text fill="#000000" stroke="none" font-family="Arial" font-size="13px" font-style="normal" font-weight="normal" text-decoration="none" x="366" y="403">«extend»</text></g></g><g transform="translate(-86,-54) scale(1,1)"><path fill="none" stroke="#000000" d="M 457 467 L 575 511" stroke-miterlimit="10"/></g><g transform="translate(-86,-54) scale(1,1)"><path fill="#FFFFFF" stroke="none" d="M 553.014086414001 511.78714915294614 L 575 511 L 558.8970129089053 496.0102099166121"/></g><g transform="translate(-86,-54) scale(1,1)"><path fill="none" stroke="#000000" d="M 553.014086414001 511.78714915294614 L 575 511 L 558.8970129089053 496.0102099166121 L 553.014086414001 511.78714915294614" stroke-miterlimit="10"/></g><g transform="translate(-86,-54) scale(1,1)"><path fill="none" stroke="#000000" d="M 465 451 L 583 455" stroke-miterlimit="10"/></g><g transform="translate(-86,-54) scale(1,1)"><path fill="#FFFFFF" stroke="none" d="M 562.4010909051229 462.725603154511 L 583 455 L 562.9715453146563 445.8971980732781"/></g><g transform="translate(-86,-54) scale(1,1)"><path fill="none" stroke="#000000" d="M 562.4010909051229 462.725603154511 L 583 455 L 562.9715453146563 445.8971980732781 L 562.4010909051229 462.725603154511" stroke-miterlimit="10"/></g><g transform="translate(-86,-54) scale(1,1)"><rect fill="#C0C0C0" stroke="none" x="543" y="1383" width="240" height="15" opacity="0.2"/></g><g transform="translate(-86,-54) scale(1,1)"><rect fill="#C0C0C0" stroke="none" x="543" y="1397" width="600" height="386" opacity="0.2"/></g><g transform="translate(-86,-54) scale(1,1)"><rect fill="#ffffff" stroke="none" x="536" y="1391" width="600" height="385"/></g><g transform="translate(-86,-54) scale(1,1)"><path fill="none" stroke="#000000" d="M 536 1391 L 1136 1391 L 1136 1776 L 536 1776 L 536 1391 Z Z" stroke-miterlimit="10"/></g><g transform="translate(-86,-54) scale(1,1)"><rect fill="#ffffff" stroke="none" x="536" y="1376" width="240" height="15"/></g><g transform="translate(-86,-54) scale(1,1)"><path fill="none" stroke="#000000" d="M 536 1376 L 776 1376 L 776 1391 L 536 1391 L 536 1376 Z Z" stroke-miterlimit="10"/></g><g transform="translate(-86,-54) scale(1,1)"><rect fill="#ffffff" stroke="none" x="536" y="1390" width="600" height="386"/></g><g transform="translate(-86,-54) scale(1,1)"><path fill="none" stroke="#000000" d="M 536 1390 L 1136 1390 L 1136 1776 L 536 1776 L 536 1390 Z Z" stroke-miterlimit="10"/></g><g transform="translate(-86,-54) scale(1,1)"><g><path fill="none" stroke="none"/><text fill="#000000" stroke="none" font-family="Arial" font-size="13px" font-style="normal" font-weight="bold" text-decoration="none" x="779.5" y="1410.5">Study Management</text></g></g><g transform="translate(-86,-54) scale(1,1)"><path fill="#C0C0C0" stroke="none" d="M 615 1632 C 615 1622.6111584 652.3842192 1615 698.5 1615 C 744.6157808 1615 782 1622.6111584 782 1632 C 782 1641.3888416 744.6157808 1649 698.5 1649 C 652.3842192 1649 615 1641.3888416 615 1632 Z" opacity="0.2"/></g><g transform="translate(-86,-54) scale(1,1)"><path fill="#ffffff" stroke="none" d="M 608 1625 C 608 1615.6111584 645.3842192 1608 691.5 1608 C 737.6157808 1608 775 1615.6111584 775 1625 C 775 1634.3888416 737.6157808 1642 691.5 1642 C 645.3842192 1642 608 1634.3888416 608 1625 Z"/></g><g transform="translate(-86,-54) scale(1,1)"><path fill="none" stroke="#000000" d="M 608 1625 C 608 1615.6111584 645.3842192 1608 691.5 1608 C 737.6157808 1608 775 1615.6111584 775 1625 C 775 1634.3888416 737.6157808 1642 691.5 1642 C 645.3842192 1642 608 1634.3888416 608 1625 Z" stroke-miterlimit="10"/></g><g transform="translate(-86,-54) scale(1,1)"><g><path fill="none" stroke="none"/><text fill="#000000" stroke="none" font-family="Arial" font-size="13px" font-style="normal" font-weight="bold" text-decoration="none" x="640.5" y="1632">Quản lý khoá học</text></g></g><g transform="translate(-86,-54) scale(1,1)"><rect fill="#C0C0C0" stroke="none" x="543" y="1887" width="153.60000000000002" height="15" opacity="0.2"/></g><g transform="translate(-86,-54) scale(1,1)"><rect fill="#C0C0C0" stroke="none" x="543" y="1901" width="384" height="282" opacity="0.2"/></g><g transform="translate(-86,-54) scale(1,1)"><rect fill="#ffffff" stroke="none" x="536" y="1895" width="384" height="281"/></g><g transform="translate(-86,-54) scale(1,1)"><path fill="none" stroke="#000000" d="M 536 1895 L 920 1895 L 920 2176 L 536 2176 L 536 1895 Z Z" stroke-miterlimit="10"/></g><g transform="translate(-86,-54) scale(1,1)"><rect fill="#ffffff" stroke="none" x="536" y="1880" width="153.60000000000002" height="15"/></g><g transform="translate(-86,-54) scale(1,1)"><path fill="none" stroke="#000000" d="M 536 1880 L 689.6 1880 L 689.6 1895 L 536 1895 L 536 1880 Z Z" stroke-miterlimit="10"/></g><g transform="translate(-86,-54) scale(1,1)"><rect fill="#ffffff" stroke="none" x="536" y="1894" width="384" height="282"/></g><g transform="translate(-86,-54) scale(1,1)"><path fill="none" stroke="#000000" d="M 536 1894 L 920 1894 L 920 2176 L 536 2176 L 536 1894 Z Z" stroke-miterlimit="10"/></g><g transform="translate(-86,-54) scale(1,1)"><g><path fill="none" stroke="none"/><text fill="#000000" stroke="none" font-family="Arial" font-size="13px" font-style="normal" font-weight="bold" text-decoration="none" x="666" y="1914.5">Student Management</text></g></g><g transform="translate(-86,-54) scale(1,1)"><path fill="#C0C0C0" stroke="none" d="M 591 1731 C 591 1719.954304 648.5314032 1711 719.5 1711 C 790.4685968 1711 848 1719.954304 848 1731 C 848 1742.045696 790.4685968 1751 719.5 1751 C 648.5314032 1751 591 1742.045696 591 1731 Z" opacity="0.2"/></g><g transform="translate(-86,-54) scale(1,1)"><path fill="#ffffff" stroke="none" d="M 584 1724 C 584 1712.954304 641.5314032 1704 712.5 1704 C 783.4685968 1704 841 1712.954304 841 1724 C 841 1735.045696 783.4685968 1744 712.5 1744 C 641.5314032 1744 584 1735.045696 584 1724 Z"/></g><g transform="translate(-86,-54) scale(1,1)"><path fill="none" stroke="#000000" d="M 584 1724 C 584 1712.954304 641.5314032 1704 712.5 1704 C 783.4685968 1704 841 1712.954304 841 1724 C 841 1735.045696 783.4685968 1744 712.5 1744 C 641.5314032 1744 584 1735.045696 584 1724 Z" stroke-miterlimit="10"/></g><g transform="translate(-86,-54) scale(1,1)"><g><path fill="none" stroke="none"/><text fill="#000000" stroke="none" font-family="Arial" font-size="13px" font-style="normal" font-weight="bold" text-decoration="none" x="633" y="1731">Quản lý nội dụng khoá  học</text></g></g><g transform="translate(-86,-54) scale(1,1)"><path fill="#C0C0C0" stroke="none" d="M 631 2056 C 631 2046.6111584 652.7141872 2039 679.5 2039 C 706.2858128 2039 728 2046.6111584 728 2056 C 728 2065.3888416 706.2858128 2073 679.5 2073 C 652.7141872 2073 631 2065.3888416 631 2056 Z" opacity="0.2"/></g><g transform="translate(-86,-54) scale(1,1)"><path fill="#ffffff" stroke="none" d="M 624 2049 C 624 2039.6111584 645.7141872 2032 672.5 2032 C 699.2858128 2032 721 2039.6111584 721 2049 C 721 2058.3888416 699.2858128 2066 672.5 2066 C 645.7141872 2066 624 2058.3888416 624 2049 Z"/></g><g transform="translate(-86,-54) scale(1,1)"><path fill="none" stroke="#000000" d="M 624 2049 C 624 2039.6111584 645.7141872 2032 672.5 2032 C 699.2858128 2032 721 2039.6111584 721 2049 C 721 2058.3888416 699.2858128 2066 672.5 2066 C 645.7141872 2066 624 2058.3888416 624 2049 Z" stroke-miterlimit="10"/></g><g transform="translate(-86,-54) scale(1,1)"><g><path fill="none" stroke="none"/><text fill="#000000" stroke="none" font-family="Arial" font-size="13px" font-style="normal" font-weight="bold" text-decoration="none" x="648.5" y="2056">Đăng ký</text></g></g><g transform="translate(-86,-54) scale(1,1)"><path fill="#C0C0C0" stroke="none" d="M 583 2128 C 583 2118.6111584 629.7862384 2111 687.5 2111 C 745.2137616 2111 792 2118.6111584 792 2128 C 792 2137.3888416 745.2137616 2145 687.5 2145 C 629.7862384 2145 583 2137.3888416 583 2128 Z" opacity="0.2"/></g><g transform="translate(-86,-54) scale(1,1)"><path fill="#ffffff" stroke="none" d="M 576 2121 C 576 2111.6111584 622.7862384 2104 680.5 2104 C 738.2137616 2104 785 2111.6111584 785 2121 C 785 2130.3888416 738.2137616 2138 680.5 2138 C 622.7862384 2138 576 2130.3888416 576 2121 Z"/></g><g transform="translate(-86,-54) scale(1,1)"><path fill="none" stroke="#000000" d="M 576 2121 C 576 2111.6111584 622.7862384 2104 680.5 2104 C 738.2137616 2104 785 2111.6111584 785 2121 C 785 2130.3888416 738.2137616 2138 680.5 2138 C 622.7862384 2138 576 2130.3888416 576 2121 Z" stroke-miterlimit="10"/></g><g transform="translate(-86,-54) scale(1,1)"><g><path fill="none" stroke="none"/><text fill="#000000" stroke="none" font-family="Arial" font-size="13px" font-style="normal" font-weight="bold" text-decoration="none" x="617" y="2128">QL thông tin sinh viên</text></g></g><g transform="translate(-86,-54) scale(1,1)"><path fill="#C0C0C0" stroke="none" d="M 623 1984 C 623 1974.6111584 646.9527632 1967 676.5 1967 C 706.0472368 1967 730 1974.6111584 730 1984 C 730 1993.3888416 706.0472368 2001 676.5 2001 C 646.9527632 2001 623 1993.3888416 623 1984 Z" opacity="0.2"/></g><g transform="translate(-86,-54) scale(1,1)"><path fill="#ffffff" stroke="none" d="M 616 1977 C 616 1967.6111584 639.9527632 1960 669.5 1960 C 699.0472368 1960 723 1967.6111584 723 1977 C 723 1986.3888416 699.0472368 1994 669.5 1994 C 639.9527632 1994 616 1986.3888416 616 1977 Z"/></g><g transform="translate(-86,-54) scale(1,1)"><path fill="none" stroke="#000000" d="M 616 1977 C 616 1967.6111584 639.9527632 1960 669.5 1960 C 699.0472368 1960 723 1967.6111584 723 1977 C 723 1986.3888416 699.0472368 1994 669.5 1994 C 639.9527632 1994 616 1986.3888416 616 1977 Z" stroke-miterlimit="10"/></g><g transform="translate(-86,-54) scale(1,1)"><g><path fill="none" stroke="none"/><text fill="#000000" stroke="none" font-family="Arial" font-size="13px" font-style="normal" font-weight="bold" text-decoration="none" x="638.5" y="1984">Đăng nhập</text></g></g><g transform="translate(-86,-54) scale(1,1)"><path fill="#C0C0C0" stroke="none" d="M 607 1472 C 607 1462.6111584 647.5182256 1455 697.5 1455 C 747.4817744 1455 788 1462.6111584 788 1472 C 788 1481.3888416 747.4817744 1489 697.5 1489 C 647.5182256 1489 607 1481.3888416 607 1472 Z" opacity="0.2"/></g><g transform="translate(-86,-54) scale(1,1)"><path fill="#ffffff" stroke="none" d="M 600 1465 C 600 1455.6111584 640.5182256 1448 690.5 1448 C 740.4817744 1448 781 1455.6111584 781 1465 C 781 1474.3888416 740.4817744 1482 690.5 1482 C 640.5182256 1482 600 1474.3888416 600 1465 Z"/></g><g transform="translate(-86,-54) scale(1,1)"><path fill="none" stroke="#000000" d="M 600 1465 C 600 1455.6111584 640.5182256 1448 690.5 1448 C 740.4817744 1448 781 1455.6111584 781 1465 C 781 1474.3888416 740.4817744 1482 690.5 1482 C 640.5182256 1482 600 1474.3888416 600 1465 Z" stroke-miterlimit="10"/></g><g transform="translate(-86,-54) scale(1,1)"><g><path fill="none" stroke="none"/><text fill="#000000" stroke="none" font-family="Arial" font-size="13px" font-style="normal" font-weight="bold" text-decoration="none" x="634.5" y="1472">Tìm kiếm khoá học</text></g></g><g transform="translate(-86,-54) scale(1,1)"><path fill="#C0C0C0" stroke="none" d="M 631 1552 C 631 1542.6111584 652.7141872 1535 679.5 1535 C 706.2858128 1535 728 1542.6111584 728 1552 C 728 1561.3888416 706.2858128 1569 679.5 1569 C 652.7141872 1569 631 1561.3888416 631 1552 Z" opacity="0.2"/></g><g transform="translate(-86,-54) scale(1,1)"><path fill="#ffffff" stroke="none" d="M 624 1545 C 624 1535.6111584 645.7141872 1528 672.5 1528 C 699.2858128 1528 721 1535.6111584 721 1545 C 721 1554.3888416 699.2858128 1562 672.5 1562 C 645.7141872 1562 624 1554.3888416 624 1545 Z"/></g><g transform="translate(-86,-54) scale(1,1)"><path fill="none" stroke="#000000" d="M 624 1545 C 624 1535.6111584 645.7141872 1528 672.5 1528 C 699.2858128 1528 721 1535.6111584 721 1545 C 721 1554.3888416 699.2858128 1562 672.5 1562 C 645.7141872 1562 624 1554.3888416 624 1545 Z" stroke-miterlimit="10"/></g><g transform="translate(-86,-54) scale(1,1)"><g><path fill="none" stroke="none"/><text fill="#000000" stroke="none" font-family="Arial" font-size="13px" font-style="normal" font-weight="bold" text-decoration="none" x="650.5" y="1552">Học bài</text></g></g><g transform="translate(-86,-54) scale(1,1)"><rect fill="#C0C0C0" stroke="none" x="479" y="2263" width="150.39999999999998" height="15" opacity="0.2"/></g><g transform="translate(-86,-54) scale(1,1)"><rect fill="#C0C0C0" stroke="none" x="479" y="2277" width="376" height="138" opacity="0.2"/></g><g transform="translate(-86,-54) scale(1,1)"><rect fill="#ffffff" stroke="none" x="472" y="2271" width="376" height="137"/></g><g transform="translate(-86,-54) scale(1,1)"><path fill="none" stroke="#000000" d="M 472 2271 L 848 2271 L 848 2408 L 472 2408 L 472 2271 Z Z" stroke-miterlimit="10"/></g><g transform="translate(-86,-54) scale(1,1)"><rect fill="#ffffff" stroke="none" x="472" y="2256" width="150.39999999999998" height="15"/></g><g transform="translate(-86,-54) scale(1,1)"><path fill="none" stroke="#000000" d="M 472 2256 L 622.4 2256 L 622.4 2271 L 472 2271 L 472 2256 Z Z" stroke-miterlimit="10"/></g><g transform="translate(-86,-54) scale(1,1)"><rect fill="#ffffff" stroke="none" x="472" y="2270" width="376" height="138"/></g><g transform="translate(-86,-54) scale(1,1)"><path fill="none" stroke="#000000" d="M 472 2270 L 848 2270 L 848 2408 L 472 2408 L 472 2270 Z Z" stroke-miterlimit="10"/></g><g transform="translate(-86,-54) scale(1,1)"><g><path fill="none" stroke="none"/><text fill="#000000" stroke="none" font-family="Arial" font-size="13px" font-style="normal" font-weight="bold" text-decoration="none" x="632.5" y="2290.5">Boundary</text></g></g><g transform="translate(-86,-54) scale(1,1)"><rect fill="#C0C0C0" stroke="none" x="343" y="2743" width="240" height="15" opacity="0.2"/></g><g transform="translate(-86,-54) scale(1,1)"><rect fill="#C0C0C0" stroke="none" x="343" y="2757" width="600" height="546" opacity="0.2"/></g><g transform="translate(-86,-54) scale(1,1)"><rect fill="#ffffff" stroke="none" x="336" y="2751" width="600" height="545"/></g><g transform="translate(-86,-54) scale(1,1)"><path fill="none" stroke="#000000" d="M 336 2751 L 936 2751 L 936 3296 L 336 3296 L 336 2751 Z Z" stroke-miterlimit="10"/></g><g transform="translate(-86,-54) scale(1,1)"><rect fill="#ffffff" stroke="none" x="336" y="2736" width="240" height="15"/></g><g transform="translate(-86,-54) scale(1,1)"><path fill="none" stroke="#000000" d="M 336 2736 L 576 2736 L 576 2751 L 336 2751 L 336 2736 Z Z" stroke-miterlimit="10"/></g><g transform="translate(-86,-54) scale(1,1)"><rect fill="#ffffff" stroke="none" x="336" y="2750" width="600" height="546"/></g><g transform="translate(-86,-54) scale(1,1)"><path fill="none" stroke="#000000" d="M 336 2750 L 936 2750 L 936 3296 L 336 3296 L 336 2750 Z Z" stroke-miterlimit="10"/></g><g transform="translate(-86,-54) scale(1,1)"><g><path fill="none" stroke="none"/><text fill="#000000" stroke="none" font-family="Arial" font-size="13px" font-style="normal" font-weight="bold" text-decoration="none" x="610" y="2770.5">Shopcart</text></g></g><g transform="translate(-86,-54) scale(1,1)"><path fill="none" stroke="#000000" d="M 583 367 L 517 364" stroke-miterlimit="10" stroke-dasharray="3"/></g><g transform="translate(-86,-54) scale(1,1)"><path fill="none" stroke="#000000" d="M 527.343336822049 360.25628748624484 L 517 364 L 526.9610481122565 368.66663910167813" stroke-miterlimit="10"/></g><g transform="translate(-86,-54) scale(1,1)"><g><path fill="none" stroke="none"/><text fill="#000000" stroke="none" font-family="Arial" font-size="13px" font-style="normal" font-weight="normal" text-decoration="none" x="523" y="401">«extend»</text></g></g><g transform="translate(-86,-54) scale(1,1)"><path fill="none" stroke="#000000" d="M 678 1087 L 812 1035" stroke-miterlimit="10" stroke-dasharray="3"/></g><g transform="translate(-86,-54) scale(1,1)"><path fill="none" stroke="#000000" d="M 804.0485852516233 1042.6009870082312 L 812 1035 L 801.0027912541651 1034.7522101686272" stroke-miterlimit="10"/></g><g transform="translate(-86,-54) scale(1,1)"><g><path fill="none" stroke="none"/><text fill="#000000" stroke="none" font-family="Arial" font-size="13px" font-style="normal" font-weight="normal" text-decoration="none" x="708" y="1040">«extend»</text></g></g><g transform="translate(-86,-54) scale(1,1)"><path fill="none" stroke="#000000" d="M 887 1135 L 862 1035" stroke-miterlimit="10" stroke-dasharray="3"/></g><g transform="translate(-86,-54) scale(1,1)"><path fill="none" stroke="#000000" d="M 868.5486427788625 1043.8382847744826 L 862 1035 L 860.3809786184074 1045.8802008145965" stroke-miterlimit="10"/></g><g transform="translate(-86,-54) scale(1,1)"><g><path fill="none" stroke="none"/><text fill="#000000" stroke="none" font-family="Arial" font-size="13px" font-style="normal" font-weight="normal" text-decoration="none" x="818" y="1099">«extend»</text></g></g><g transform="translate(-86,-54) scale(1,1)"><path fill="#C0C0C0" stroke="none" d="M 463 2928 C 463 2918.6111584 488.0720512 2911 519 2911 C 549.9279488 2911 575 2918.6111584 575 2928 C 575 2937.3888416 549.9279488 2945 519 2945 C 488.0720512 2945 463 2937.3888416 463 2928 Z" opacity="0.2"/></g><g transform="translate(-86,-54) scale(1,1)"><path fill="#ffffff" stroke="none" d="M 456 2921 C 456 2911.6111584 481.0720512 2904 512 2904 C 542.9279488 2904 568 2911.6111584 568 2921 C 568 2930.3888416 542.9279488 2938 512 2938 C 481.0720512 2938 456 2930.3888416 456 2921 Z"/></g><g transform="translate(-86,-54) scale(1,1)"><path fill="none" stroke="#000000" d="M 456 2921 C 456 2911.6111584 481.0720512 2904 512 2904 C 542.9279488 2904 568 2911.6111584 568 2921 C 568 2930.3888416 542.9279488 2938 512 2938 C 481.0720512 2938 456 2930.3888416 456 2921 Z" stroke-miterlimit="10"/></g><g transform="translate(-86,-54) scale(1,1)"><g><path fill="none" stroke="none"/><text fill="#000000" stroke="none" font-family="Arial" font-size="13px" font-style="normal" font-weight="bold" text-decoration="none" x="479.5" y="2928">Thanh toán</text></g></g><g transform="translate(-86,-54) scale(1,1)"><path fill="none" stroke="#000000" d="M 740 2951 L 611 2843" stroke-miterlimit="10" stroke-dasharray="3"/></g><g transform="translate(-86,-54) scale(1,1)"><path fill="none" stroke="#000000" d="M 621.4945526788206 2846.2961134797606 L 611 2843 L 616.0900651716142 2852.7514735578125" stroke-miterlimit="10"/></g><g transform="translate(-86,-54) scale(1,1)"><g><path fill="none" stroke="none"/><text fill="#000000" stroke="none" font-family="Arial" font-size="13px" font-style="normal" font-weight="normal" text-decoration="none" x="656" y="2902">«extend»</text></g></g><g transform="translate(-86,-54) scale(1,1)"><path fill="none" stroke="#000000" d="M 526 2903 L 575 2843" stroke-miterlimit="10" stroke-dasharray="3"/></g><g transform="translate(-86,-54) scale(1,1)"><path fill="none" stroke="#000000" d="M 571.8321635637992 2853.533983686786 L 575 2843 L 565.3113500764375 2848.2086526721077" stroke-miterlimit="10"/></g><g transform="translate(-86,-54) scale(1,1)"><g><path fill="none" stroke="none"/><text fill="#000000" stroke="none" font-family="Arial" font-size="13px" font-style="normal" font-weight="normal" text-decoration="none" x="490" y="2894">«extend»</text></g></g><g transform="translate(-86,-54) scale(1,1)"><path fill="none" stroke="#000000" d="M 489 2939 L 431 2983" stroke-miterlimit="10"/></g><g transform="translate(-86,-54) scale(1,1)"><path fill="#FFFFFF" stroke="none" d="M 442.10467744649515 2964.0082613010472 L 431 2983 L 452.28137994585853 2977.4230055047533"/></g><g transform="translate(-86,-54) scale(1,1)"><path fill="none" stroke="#000000" d="M 442.10467744649515 2964.0082613010472 L 431 2983 L 452.28137994585853 2977.4230055047533 L 442.10467744649515 2964.0082613010472" stroke-miterlimit="10"/></g><g transform="translate(-86,-54) scale(1,1)"><path fill="none" stroke="#000000" d="M 522 2939 L 552 2991" stroke-miterlimit="10"/></g><g transform="translate(-86,-54) scale(1,1)"><path fill="#FFFFFF" stroke="none" d="M 534.550519163309 2977.601656127343 L 552 2991 L 549.1354135812159 2969.187293963166"/></g><g transform="translate(-86,-54) scale(1,1)"><path fill="none" stroke="#000000" d="M 534.550519163309 2977.601656127343 L 552 2991 L 549.1354135812159 2969.187293963166 L 534.550519163309 2977.601656127343" stroke-miterlimit="10"/></g><g transform="translate(-86,-54) scale(1,1)"><path fill="#C0C0C0" stroke="none" d="M 719 2976 C 719 2966.6111584 741.1619024 2959 768.5 2959 C 795.8380976 2959 818 2966.6111584 818 2976 C 818 2985.3888416 795.8380976 2993 768.5 2993 C 741.1619024 2993 719 2985.3888416 719 2976 Z" opacity="0.2"/></g><g transform="translate(-86,-54) scale(1,1)"><path fill="#ffffff" stroke="none" d="M 712 2969 C 712 2959.6111584 734.1619024 2952 761.5 2952 C 788.8380976 2952 811 2959.6111584 811 2969 C 811 2978.3888416 788.8380976 2986 761.5 2986 C 734.1619024 2986 712 2978.3888416 712 2969 Z"/></g><g transform="translate(-86,-54) scale(1,1)"><path fill="none" stroke="#000000" d="M 712 2969 C 712 2959.6111584 734.1619024 2952 761.5 2952 C 788.8380976 2952 811 2959.6111584 811 2969 C 811 2978.3888416 788.8380976 2986 761.5 2986 C 734.1619024 2986 712 2978.3888416 712 2969 Z" stroke-miterlimit="10"/></g><g transform="translate(-86,-54) scale(1,1)"><g><path fill="none" stroke="none"/><text fill="#000000" stroke="none" font-family="Arial" font-size="13px" font-style="normal" font-weight="bold" text-decoration="none" x="733" y="2976">Mua hàng</text></g></g><g transform="translate(-86,-54) scale(1,1)"><path fill="none" stroke="#000000" d="M 481 3215 L 590 3115" stroke-miterlimit="10" stroke-dasharray="3"/></g><g transform="translate(-86,-54) scale(1,1)"><path fill="none" stroke="#000000" d="M 585.3571578377258 3124.9721620853356 L 590 3115 L 579.6656313894448 3118.7683982567096" stroke-miterlimit="10"/></g><g transform="translate(-86,-54) scale(1,1)"><g><path fill="none" stroke="none"/><text fill="#000000" stroke="none" font-family="Arial" font-size="13px" font-style="normal" font-weight="normal" text-decoration="none" x="488" y="3149">«extend»</text></g></g><g transform="translate(-86,-54) scale(1,1)"><path fill="none" stroke="#000000" d="M 722 3215 L 627 3115" stroke-miterlimit="10" stroke-dasharray="3"/></g><g transform="translate(-86,-54) scale(1,1)"><path fill="none" stroke="#000000" d="M 637.0514348286198 3119.4686304262054 L 627 3115 L 630.9476388509854 3125.2672366049583" stroke-miterlimit="10"/></g><g transform="translate(-86,-54) scale(1,1)"><g><path fill="none" stroke="none"/><text fill="#000000" stroke="none" font-family="Arial" font-size="13px" font-style="normal" font-weight="normal" text-decoration="none" x="647" y="3172">«extend»</text></g></g><g transform="translate(-86,-54) scale(1,1)"><path fill="#C0C0C0" stroke="none" d="M 759 1544 C 759 1534.6111584 803.3238048 1527 858 1527 C 912.6761952 1527 957 1534.6111584 957 1544 C 957 1553.3888416 912.6761952 1561 858 1561 C 803.3238048 1561 759 1553.3888416 759 1544 Z" opacity="0.2"/></g><g transform="translate(-86,-54) scale(1,1)"><path fill="#ffffff" stroke="none" d="M 752 1537 C 752 1527.6111584 796.3238048 1520 851 1520 C 905.6761952 1520 950 1527.6111584 950 1537 C 950 1546.3888416 905.6761952 1554 851 1554 C 796.3238048 1554 752 1546.3888416 752 1537 Z"/></g><g transform="translate(-86,-54) scale(1,1)"><path fill="none" stroke="#000000" d="M 752 1537 C 752 1527.6111584 796.3238048 1520 851 1520 C 905.6761952 1520 950 1527.6111584 950 1537 C 950 1546.3888416 905.6761952 1554 851 1554 C 796.3238048 1554 752 1546.3888416 752 1537 Z" stroke-miterlimit="10"/></g><g transform="translate(-86,-54) scale(1,1)"><g><path fill="none" stroke="none"/><text fill="#000000" stroke="none" font-family="Arial" font-size="13px" font-style="normal" font-weight="bold" text-decoration="none" x="789.5" y="1544">Tìm theo mức độ hot</text></g></g><g transform="translate(-86,-54) scale(1,1)"><path fill="#C0C0C0" stroke="none" d="M 415 3240 C 415 3230.6111584 438.9527632 3223 468.5 3223 C 498.0472368 3223 522 3230.6111584 522 3240 C 522 3249.3888416 498.0472368 3257 468.5 3257 C 438.9527632 3257 415 3249.3888416 415 3240 Z" opacity="0.2"/></g><g transform="translate(-86,-54) scale(1,1)"><path fill="#ffffff" stroke="none" d="M 408 3233 C 408 3223.6111584 431.9527632 3216 461.5 3216 C 491.0472368 3216 515 3223.6111584 515 3233 C 515 3242.3888416 491.0472368 3250 461.5 3250 C 431.9527632 3250 408 3242.3888416 408 3233 Z"/></g><g transform="translate(-86,-54) scale(1,1)"><path fill="none" stroke="#000000" d="M 408 3233 C 408 3223.6111584 431.9527632 3216 461.5 3216 C 491.0472368 3216 515 3223.6111584 515 3233 C 515 3242.3888416 491.0472368 3250 461.5 3250 C 431.9527632 3250 408 3242.3888416 408 3233 Z" stroke-miterlimit="10"/></g><g transform="translate(-86,-54) scale(1,1)"><g><path fill="none" stroke="none"/><text fill="#000000" stroke="none" font-family="Arial" font-size="13px" font-style="normal" font-weight="bold" text-decoration="none" x="430.5" y="3240">Nhận thiền</text></g></g><g transform="translate(-86,-54) scale(1,1)"><path fill="#C0C0C0" stroke="none" d="M 647 3240 C 647 3230.6111584 691.3238048 3223 746 3223 C 800.6761952 3223 845 3230.6111584 845 3240 C 845 3249.3888416 800.6761952 3257 746 3257 C 691.3238048 3257 647 3249.3888416 647 3240 Z" opacity="0.2"/></g><g transform="translate(-86,-54) scale(1,1)"><path fill="#ffffff" stroke="none" d="M 640 3233 C 640 3223.6111584 684.3238048 3216 739 3216 C 793.6761952 3216 838 3223.6111584 838 3233 C 838 3242.3888416 793.6761952 3250 739 3250 C 684.3238048 3250 640 3242.3888416 640 3233 Z"/></g><g transform="translate(-86,-54) scale(1,1)"><path fill="none" stroke="#000000" d="M 640 3233 C 640 3223.6111584 684.3238048 3216 739 3216 C 793.6761952 3216 838 3223.6111584 838 3233 C 838 3242.3888416 793.6761952 3250 739 3250 C 684.3238048 3250 640 3242.3888416 640 3233 Z" stroke-miterlimit="10"/></g><g transform="translate(-86,-54) scale(1,1)"><g><path fill="none" stroke="none"/><text fill="#000000" stroke="none" font-family="Arial" font-size="13px" font-style="normal" font-weight="bold" text-decoration="none" x="678.5" y="3240">Theo dõi chuyển tiền</text></g></g><g transform="translate(-86,-54) scale(1,1)"><path fill="#C0C0C0" stroke="none" d="M 527 3104 C 527 3094.6111584 567.5182256 3087 617.5 3087 C 667.4817744 3087 708 3094.6111584 708 3104 C 708 3113.3888416 667.4817744 3121 617.5 3121 C 567.5182256 3121 527 3113.3888416 527 3104 Z" opacity="0.2"/></g><g transform="translate(-86,-54) scale(1,1)"><path fill="#ffffff" stroke="none" d="M 520 3097 C 520 3087.6111584 560.5182256 3080 610.5 3080 C 660.4817744 3080 701 3087.6111584 701 3097 C 701 3106.3888416 660.4817744 3114 610.5 3114 C 560.5182256 3114 520 3106.3888416 520 3097 Z"/></g><g transform="translate(-86,-54) scale(1,1)"><path fill="none" stroke="#000000" d="M 520 3097 C 520 3087.6111584 560.5182256 3080 610.5 3080 C 660.4817744 3080 701 3087.6111584 701 3097 C 701 3106.3888416 660.4817744 3114 610.5 3114 C 560.5182256 3114 520 3106.3888416 520 3097 Z" stroke-miterlimit="10"/></g><g transform="translate(-86,-54) scale(1,1)"><g><path fill="none" stroke="none"/><text fill="#000000" stroke="none" font-family="Arial" font-size="13px" font-style="normal" font-weight="bold" text-decoration="none" x="555.5" y="3104">QL giao thanh toán</text></g></g><g transform="translate(-86,-54) scale(1,1)"><path fill="#C0C0C0" stroke="none" d="M 367 3008 C 367 2998.6111584 388.71418719999997 2991 415.5 2991 C 442.28581280000003 2991 464 2998.6111584 464 3008 C 464 3017.3888416 442.28581280000003 3025 415.5 3025 C 388.71418719999997 3025 367 3017.3888416 367 3008 Z" opacity="0.2"/></g><g transform="translate(-86,-54) scale(1,1)"><path fill="#ffffff" stroke="none" d="M 360 3001 C 360 2991.6111584 381.71418719999997 2984 408.5 2984 C 435.28581280000003 2984 457 2991.6111584 457 3001 C 457 3010.3888416 435.28581280000003 3018 408.5 3018 C 381.71418719999997 3018 360 3010.3888416 360 3001 Z"/></g><g transform="translate(-86,-54) scale(1,1)"><path fill="none" stroke="#000000" d="M 360 3001 C 360 2991.6111584 381.71418719999997 2984 408.5 2984 C 435.28581280000003 2984 457 2991.6111584 457 3001 C 457 3010.3888416 435.28581280000003 3018 408.5 3018 C 381.71418719999997 3018 360 3010.3888416 360 3001 Z" stroke-miterlimit="10"/></g><g transform="translate(-86,-54) scale(1,1)"><g><path fill="none" stroke="none"/><text fill="#000000" stroke="none" font-family="Arial" font-size="13px" font-style="normal" font-weight="bold" text-decoration="none" x="383" y="3008">Tiền mặt</text></g></g><g transform="translate(-86,-54) scale(1,1)"><path fill="#C0C0C0" stroke="none" d="M 511 3016 C 511 3006.6111584 537.1913392 2999 569.5 2999 C 601.8086608 2999 628 3006.6111584 628 3016 C 628 3025.3888416 601.8086608 3033 569.5 3033 C 537.1913392 3033 511 3025.3888416 511 3016 Z" opacity="0.2"/></g><g transform="translate(-86,-54) scale(1,1)"><path fill="#ffffff" stroke="none" d="M 504 3009 C 504 2999.6111584 530.1913392 2992 562.5 2992 C 594.8086608 2992 621 2999.6111584 621 3009 C 621 3018.3888416 594.8086608 3026 562.5 3026 C 530.1913392 3026 504 3018.3888416 504 3009 Z"/></g><g transform="translate(-86,-54) scale(1,1)"><path fill="none" stroke="#000000" d="M 504 3009 C 504 2999.6111584 530.1913392 2992 562.5 2992 C 594.8086608 2992 621 2999.6111584 621 3009 C 621 3018.3888416 594.8086608 3026 562.5 3026 C 530.1913392 3026 504 3018.3888416 504 3009 Z" stroke-miterlimit="10"/></g><g transform="translate(-86,-54) scale(1,1)"><g><path fill="none" stroke="none"/><text fill="#000000" stroke="none" font-family="Arial" font-size="13px" font-style="normal" font-weight="bold" text-decoration="none" x="528" y="3016">Ngân lượng</text></g></g><g transform="translate(-86,-54) scale(1,1)"><path fill="#C0C0C0" stroke="none" d="M 535 2832 C 535 2822.6111584 562.3106272 2815 596 2815 C 629.6893728 2815 657 2822.6111584 657 2832 C 657 2841.3888416 629.6893728 2849 596 2849 C 562.3106272 2849 535 2841.3888416 535 2832 Z" opacity="0.2"/></g><g transform="translate(-86,-54) scale(1,1)"><path fill="#ffffff" stroke="none" d="M 528 2825 C 528 2815.6111584 555.3106272 2808 589 2808 C 622.6893728 2808 650 2815.6111584 650 2825 C 650 2834.3888416 622.6893728 2842 589 2842 C 555.3106272 2842 528 2834.3888416 528 2825 Z"/></g><g transform="translate(-86,-54) scale(1,1)"><path fill="none" stroke="#000000" d="M 528 2825 C 528 2815.6111584 555.3106272 2808 589 2808 C 622.6893728 2808 650 2815.6111584 650 2825 C 650 2834.3888416 622.6893728 2842 589 2842 C 555.3106272 2842 528 2834.3888416 528 2825 Z" stroke-miterlimit="10"/></g><g transform="translate(-86,-54) scale(1,1)"><g><path fill="none" stroke="none"/><text fill="#000000" stroke="none" font-family="Arial" font-size="13px" font-style="normal" font-weight="bold" text-decoration="none" x="554" y="2832">QL giỏ hàng</text></g></g><g transform="translate(-86,-54) scale(1,1)"><rect fill="#C0C0C0" stroke="none" x="727" y="2519" width="73.60000000000002" height="15" opacity="0.2"/></g><g transform="translate(-86,-54) scale(1,1)"><rect fill="#C0C0C0" stroke="none" x="727" y="2533" width="184" height="130" opacity="0.2"/></g><g transform="translate(-86,-54) scale(1,1)"><rect fill="#ffffff" stroke="none" x="720" y="2527" width="184" height="129"/></g><g transform="translate(-86,-54) scale(1,1)"><path fill="none" stroke="#000000" d="M 720 2527 L 904 2527 L 904 2656 L 720 2656 L 720 2527 Z Z" stroke-miterlimit="10"/></g><g transform="translate(-86,-54) scale(1,1)"><rect fill="#ffffff" stroke="none" x="720" y="2512" width="73.60000000000002" height="15"/></g><g transform="translate(-86,-54) scale(1,1)"><path fill="none" stroke="#000000" d="M 720 2512 L 793.6 2512 L 793.6 2527 L 720 2527 L 720 2512 Z Z" stroke-miterlimit="10"/></g><g transform="translate(-86,-54) scale(1,1)"><rect fill="#ffffff" stroke="none" x="720" y="2526" width="184" height="130"/></g><g transform="translate(-86,-54) scale(1,1)"><path fill="none" stroke="#000000" d="M 720 2526 L 904 2526 L 904 2656 L 720 2656 L 720 2526 Z Z" stroke-miterlimit="10"/></g><g transform="translate(-86,-54) scale(1,1)"><g><path fill="none" stroke="none"/><text fill="#000000" stroke="none" font-family="Arial" font-size="13px" font-style="normal" font-weight="bold" text-decoration="none" x="777.5" y="2546.5">Comunicate</text></g></g><g transform="translate(-86,-54) scale(1,1)"><path fill="#C0C0C0" stroke="none" d="M 591 2352 C 591 2342.6111584 623.2354944 2335 663 2335 C 702.7645056 2335 735 2342.6111584 735 2352 C 735 2361.3888416 702.7645056 2369 663 2369 C 623.2354944 2369 591 2361.3888416 591 2352 Z" opacity="0.2"/></g><g transform="translate(-86,-54) scale(1,1)"><path fill="#ffffff" stroke="none" d="M 584 2345 C 584 2335.6111584 616.2354944 2328 656 2328 C 695.7645056 2328 728 2335.6111584 728 2345 C 728 2354.3888416 695.7645056 2362 656 2362 C 616.2354944 2362 584 2354.3888416 584 2345 Z"/></g><g transform="translate(-86,-54) scale(1,1)"><path fill="none" stroke="#000000" d="M 584 2345 C 584 2335.6111584 616.2354944 2328 656 2328 C 695.7645056 2328 728 2335.6111584 728 2345 C 728 2354.3888416 695.7645056 2362 656 2362 C 616.2354944 2362 584 2354.3888416 584 2345 Z" stroke-miterlimit="10"/></g><g transform="translate(-86,-54) scale(1,1)"><g><path fill="none" stroke="none"/><text fill="#000000" stroke="none" font-family="Arial" font-size="13px" font-style="normal" font-weight="bold" text-decoration="none" x="612.5" y="2352">Xem trang web</text></g></g><g transform="translate(-86,-54) scale(1,1)"><path fill="#ffffff" stroke="none" d="M 127.82072727272728 1993.6799999999998 C 127.82072727272728 1988.8861679359998 131.70656959767274 1985 136.5 1985 C 141.29343040232726 1985 145.17927272727272 1988.8861679359998 145.17927272727272 1993.6799999999998 C 145.17927272727272 1998.473832064 141.29343040232726 2002.36 136.5 2002.36 C 131.70656959767274 2002.36 127.82072727272728 1998.473832064 127.82072727272728 1993.6799999999998 Z"/></g><g transform="translate(-86,-54) scale(1,1)"><path fill="none" stroke="#000000" d="M 127.82072727272728 1993.6799999999998 C 127.82072727272728 1988.8861679359998 131.70656959767274 1985 136.5 1985 C 141.29343040232726 1985 145.17927272727272 1988.8861679359998 145.17927272727272 1993.6799999999998 C 145.17927272727272 1998.473832064 141.29343040232726 2002.36 136.5 2002.36 C 131.70656959767274 2002.36 127.82072727272728 1998.473832064 127.82072727272728 1993.6799999999998 Z" stroke-miterlimit="10"/></g><g transform="translate(-86,-54) scale(1,1)"><path fill="none" stroke="#000000" d="M 136.5 2002.36 L 136.5 2019.64" stroke-miterlimit="10"/></g><g transform="translate(-86,-54) scale(1,1)"><path fill="none" stroke="#000000" d="M 127.31018181818183 2008.84 L 145.68981818181817 2008.84" stroke-miterlimit="10"/></g><g transform="translate(-86,-54) scale(1,1)"><path fill="none" stroke="#000000" d="M 136.5 2019.64 L 123.73636363636365 2037" stroke-miterlimit="10"/></g><g transform="translate(-86,-54) scale(1,1)"><path fill="none" stroke="#000000" d="M 136.5 2019.64 L 149.26363636363635 2037" stroke-miterlimit="10"/></g><g transform="translate(-86,-54) scale(1,1)"><g><path fill="none" stroke="none"/><text fill="#000000" stroke="none" font-family="Arial" font-size="13px" font-style="normal" font-weight="bold" text-decoration="none" x="123" y="2057.5">User</text></g></g><g transform="translate(-86,-54) scale(1,1)"><path fill="none" stroke="#000000" d="M 162 1997 L 672 1483" stroke-miterlimit="10"/></g><g transform="translate(-86,-54) scale(1,1)"><path fill="none" stroke="#000000" d="M 162 2000 L 652 1563" stroke-miterlimit="10"/></g><g transform="translate(-86,-54) scale(1,1)"><path fill="none" stroke="#000000" d="M 162 2004 L 666 1643" stroke-miterlimit="10"/></g><g transform="translate(-86,-54) scale(1,1)"><path fill="none" stroke="#000000" d="M 162 2010 L 672 1745" stroke-miterlimit="10"/></g><g transform="translate(-86,-54) scale(1,1)"><path fill="none" stroke="#000000" d="M 782 1463 L 887 1460" stroke-miterlimit="10"/></g><g transform="translate(-86,-54) scale(1,1)"><path fill="#FFFFFF" stroke="none" d="M 866.9233870207619 1468.9960886657418 L 887 1460 L 866.4424955194214 1452.1648861188244"/></g><g transform="translate(-86,-54) scale(1,1)"><path fill="none" stroke="#000000" d="M 866.9233870207619 1468.9960886657418 L 887 1460 L 866.4424955194214 1452.1648861188244 L 866.9233870207619 1468.9960886657418" stroke-miterlimit="10"/></g><g transform="translate(-86,-54) scale(1,1)"><path fill="none" stroke="#000000" d="M 730 1483 L 811 1519" stroke-miterlimit="10"/></g><g transform="translate(-86,-54) scale(1,1)"><path fill="#FFFFFF" stroke="none" d="M 789.0071665319545 1518.438505523788 L 811 1519 L 795.8457548689668 1503.0516817655102"/></g><g transform="translate(-86,-54) scale(1,1)"><path fill="none" stroke="#000000" d="M 789.0071665319545 1518.438505523788 L 811 1519 L 795.8457548689668 1503.0516817655102 L 789.0071665319545 1518.438505523788" stroke-miterlimit="10"/></g><g transform="translate(-86,-54) scale(1,1)"><path fill="none" stroke="#000000" d="M 162 2021 L 615 1982" stroke-miterlimit="10"/></g><g transform="translate(-86,-54) scale(1,1)"><path fill="none" stroke="#000000" d="M 162 2024 L 623 2047" stroke-miterlimit="10"/></g><g transform="translate(-86,-54) scale(1,1)"><path fill="none" stroke="#000000" d="M 162 2039 L 627 2327" stroke-miterlimit="10"/></g><g transform="translate(-86,-54) scale(1,1)"><path fill="none" stroke="#000000" d="M 162 2045 L 787 2575" stroke-miterlimit="10"/></g><g transform="translate(-86,-54) scale(1,1)"><path fill="none" stroke="#000000" d="M 159 2064 L 579 2807" stroke-miterlimit="10"/></g><g transform="translate(-86,-54) scale(1,1)"><path fill="#ffffff" stroke="none" d="M 1444.3207272727273 1737.6799999999998 C 1444.3207272727273 1732.8861679359998 1448.2065695976728 1729 1453 1729 C 1457.7934304023272 1729 1461.6792727272727 1732.8861679359998 1461.6792727272727 1737.6799999999998 C 1461.6792727272727 1742.473832064 1457.7934304023272 1746.36 1453 1746.36 C 1448.2065695976728 1746.36 1444.3207272727273 1742.473832064 1444.3207272727273 1737.6799999999998 Z"/></g><g transform="translate(-86,-54) scale(1,1)"><path fill="none" stroke="#000000" d="M 1444.3207272727273 1737.6799999999998 C 1444.3207272727273 1732.8861679359998 1448.2065695976728 1729 1453 1729 C 1457.7934304023272 1729 1461.6792727272727 1732.8861679359998 1461.6792727272727 1737.6799999999998 C 1461.6792727272727 1742.473832064 1457.7934304023272 1746.36 1453 1746.36 C 1448.2065695976728 1746.36 1444.3207272727273 1742.473832064 1444.3207272727273 1737.6799999999998 Z" stroke-miterlimit="10"/></g><g transform="translate(-86,-54) scale(1,1)"><path fill="none" stroke="#000000" d="M 1453 1746.36 L 1453 1763.64" stroke-miterlimit="10"/></g><g transform="translate(-86,-54) scale(1,1)"><path fill="none" stroke="#000000" d="M 1443.8101818181817 1752.84 L 1462.1898181818183 1752.84" stroke-miterlimit="10"/></g><g transform="translate(-86,-54) scale(1,1)"><path fill="none" stroke="#000000" d="M 1453 1763.64 L 1440.2363636363636 1781" stroke-miterlimit="10"/></g><g transform="translate(-86,-54) scale(1,1)"><path fill="none" stroke="#000000" d="M 1453 1763.64 L 1465.7636363636364 1781" stroke-miterlimit="10"/></g><g transform="translate(-86,-54) scale(1,1)"><g><path fill="none" stroke="none"/><text fill="#000000" stroke="none" font-family="Arial" font-size="13px" font-style="normal" font-weight="bold" text-decoration="none" x="1416" y="1801.5">Adminstrator</text></g></g><g transform="translate(-86,-54) scale(1,1)"><rect fill="#C0C0C0" stroke="none" x="1335" y="1439" width="96" height="15" opacity="0.2"/></g><g transform="translate(-86,-54) scale(1,1)"><rect fill="#C0C0C0" stroke="none" x="1335" y="1453" width="240" height="130" opacity="0.2"/></g><g transform="translate(-86,-54) scale(1,1)"><rect fill="#ffffff" stroke="none" x="1328" y="1447" width="240" height="129"/></g><g transform="translate(-86,-54) scale(1,1)"><path fill="none" stroke="#000000" d="M 1328 1447 L 1568 1447 L 1568 1576 L 1328 1576 L 1328 1447 Z Z" stroke-miterlimit="10"/></g><g transform="translate(-86,-54) scale(1,1)"><rect fill="#ffffff" stroke="none" x="1328" y="1432" width="96" height="15"/></g><g transform="translate(-86,-54) scale(1,1)"><path fill="none" stroke="#000000" d="M 1328 1432 L 1424 1432 L 1424 1447 L 1328 1447 L 1328 1432 Z Z" stroke-miterlimit="10"/></g><g transform="translate(-86,-54) scale(1,1)"><rect fill="#ffffff" stroke="none" x="1328" y="1446" width="240" height="130"/></g><g transform="translate(-86,-54) scale(1,1)"><path fill="none" stroke="#000000" d="M 1328 1446 L 1568 1446 L 1568 1576 L 1328 1576 L 1328 1446 Z Z" stroke-miterlimit="10"/></g><g transform="translate(-86,-54) scale(1,1)"><g><path fill="none" stroke="none"/><text fill="#000000" stroke="none" font-family="Arial" font-size="13px" font-style="normal" font-weight="bold" text-decoration="none" x="1390" y="1466.5">Admin Management</text></g></g><g transform="translate(-86,-54) scale(1,1)"><path fill="#C0C0C0" stroke="none" d="M 895 1464 C 895 1454.6111584 945.36796 1447 1007.5 1447 C 1069.63204 1447 1120 1454.6111584 1120 1464 C 1120 1473.3888416 1069.63204 1481 1007.5 1481 C 945.36796 1481 895 1473.3888416 895 1464 Z" opacity="0.2"/></g><g transform="translate(-86,-54) scale(1,1)"><path fill="#ffffff" stroke="none" d="M 888 1457 C 888 1447.6111584 938.36796 1440 1000.5 1440 C 1062.63204 1440 1113 1447.6111584 1113 1457 C 1113 1466.3888416 1062.63204 1474 1000.5 1474 C 938.36796 1474 888 1466.3888416 888 1457 Z"/></g><g transform="translate(-86,-54) scale(1,1)"><path fill="none" stroke="#000000" d="M 888 1457 C 888 1447.6111584 938.36796 1440 1000.5 1440 C 1062.63204 1440 1113 1447.6111584 1113 1457 C 1113 1466.3888416 1062.63204 1474 1000.5 1474 C 938.36796 1474 888 1466.3888416 888 1457 Z" stroke-miterlimit="10"/></g><g transform="translate(-86,-54) scale(1,1)"><g><path fill="none" stroke="none"/><text fill="#000000" stroke="none" font-family="Arial" font-size="13px" font-style="normal" font-weight="bold" text-decoration="none" x="930.5" y="1464">Tìm kiếm chuyên ngành</text></g></g><g transform="translate(-86,-54) scale(1,1)"><path fill="#C0C0C0" stroke="none" d="M 1399 1512 C 1399 1502.6111584 1425.1913392 1495 1457.5 1495 C 1489.8086608 1495 1516 1502.6111584 1516 1512 C 1516 1521.3888416 1489.8086608 1529 1457.5 1529 C 1425.1913392 1529 1399 1521.3888416 1399 1512 Z" opacity="0.2"/></g><g transform="translate(-86,-54) scale(1,1)"><path fill="#ffffff" stroke="none" d="M 1392 1505 C 1392 1495.6111584 1418.1913392 1488 1450.5 1488 C 1482.8086608 1488 1509 1495.6111584 1509 1505 C 1509 1514.3888416 1482.8086608 1522 1450.5 1522 C 1418.1913392 1522 1392 1514.3888416 1392 1505 Z"/></g><g transform="translate(-86,-54) scale(1,1)"><path fill="none" stroke="#000000" d="M 1392 1505 C 1392 1495.6111584 1418.1913392 1488 1450.5 1488 C 1482.8086608 1488 1509 1495.6111584 1509 1505 C 1509 1514.3888416 1482.8086608 1522 1450.5 1522 C 1418.1913392 1522 1392 1514.3888416 1392 1505 Z" stroke-miterlimit="10"/></g><g transform="translate(-86,-54) scale(1,1)"><g><path fill="none" stroke="none"/><text fill="#000000" stroke="none" font-family="Arial" font-size="13px" font-style="normal" font-weight="bold" text-decoration="none" x="1416" y="1512">Phân quyền</text></g></g><g transform="translate(-86,-54) scale(1,1)"><path fill="none" stroke="#000000" d="M 1453 1727 L 1450 1523" stroke-miterlimit="10"/></g><g transform="translate(-86,-54) scale(1,1)"><path fill="#ffffff" stroke="none" d="M 1332.3207272727273 2609.6800000000003 C 1332.3207272727273 2604.886167936 1336.2065695976728 2601 1341 2601 C 1345.7934304023272 2601 1349.6792727272727 2604.886167936 1349.6792727272727 2609.6800000000003 C 1349.6792727272727 2614.4738320640004 1345.7934304023272 2618.36 1341 2618.36 C 1336.2065695976728 2618.36 1332.3207272727273 2614.4738320640004 1332.3207272727273 2609.6800000000003 Z"/></g><g transform="translate(-86,-54) scale(1,1)"><path fill="none" stroke="#000000" d="M 1332.3207272727273 2609.6800000000003 C 1332.3207272727273 2604.886167936 1336.2065695976728 2601 1341 2601 C 1345.7934304023272 2601 1349.6792727272727 2604.886167936 1349.6792727272727 2609.6800000000003 C 1349.6792727272727 2614.4738320640004 1345.7934304023272 2618.36 1341 2618.36 C 1336.2065695976728 2618.36 1332.3207272727273 2614.4738320640004 1332.3207272727273 2609.6800000000003 Z" stroke-miterlimit="10"/></g><g transform="translate(-86,-54) scale(1,1)"><path fill="none" stroke="#000000" d="M 1341 2618.36 L 1341 2635.64" stroke-miterlimit="10"/></g><g transform="translate(-86,-54) scale(1,1)"><path fill="none" stroke="#000000" d="M 1331.8101818181817 2624.84 L 1350.1898181818183 2624.84" stroke-miterlimit="10"/></g><g transform="translate(-86,-54) scale(1,1)"><path fill="none" stroke="#000000" d="M 1341 2635.64 L 1328.2363636363636 2653" stroke-miterlimit="10"/></g><g transform="translate(-86,-54) scale(1,1)"><path fill="none" stroke="#000000" d="M 1341 2635.64 L 1353.7636363636364 2653" stroke-miterlimit="10"/></g><g transform="translate(-86,-54) scale(1,1)"><g><path fill="none" stroke="none"/><text fill="#000000" stroke="none" font-family="Arial" font-size="13px" font-style="normal" font-weight="bold" text-decoration="none" x="1272.5" y="2673.5">Moderater Management</text></g></g><g transform="translate(-86,-54) scale(1,1)"><path fill="none" stroke="#000000" d="M 1290 2599 L 703 2139" stroke-miterlimit="10"/></g><g transform="translate(-86,-54) scale(1,1)"><path fill="none" stroke="#000000" d="M 1276 2680 L 639 3079" stroke-miterlimit="10"/></g><g transform="translate(-86,-54) scale(1,1)"><path fill="none" stroke="#000000" d="M 1263 2632 L 858 2597" stroke-miterlimit="10"/></g><g transform="translate(-86,-54) scale(1,1)"><path fill="none" stroke="#000000" d="M 1421 1808 L 822 2575" stroke-miterlimit="10"/></g><g transform="translate(-86,-54) scale(1,1)"><path fill="#C0C0C0" stroke="none" d="M 767 2600 C 767 2590.6111584 788.7141872 2583 815.5 2583 C 842.2858128 2583 864 2590.6111584 864 2600 C 864 2609.3888416 842.2858128 2617 815.5 2617 C 788.7141872 2617 767 2609.3888416 767 2600 Z" opacity="0.2"/></g><g transform="translate(-86,-54) scale(1,1)"><path fill="#ffffff" stroke="none" d="M 760 2593 C 760 2583.6111584 781.7141872 2576 808.5 2576 C 835.2858128 2576 857 2583.6111584 857 2593 C 857 2602.3888416 835.2858128 2610 808.5 2610 C 781.7141872 2610 760 2602.3888416 760 2593 Z"/></g><g transform="translate(-86,-54) scale(1,1)"><path fill="none" stroke="#000000" d="M 760 2593 C 760 2583.6111584 781.7141872 2576 808.5 2576 C 835.2858128 2576 857 2583.6111584 857 2593 C 857 2602.3888416 835.2858128 2610 808.5 2610 C 781.7141872 2610 760 2602.3888416 760 2593 Z" stroke-miterlimit="10"/></g><g transform="translate(-86,-54) scale(1,1)"><g><path fill="none" stroke="none"/><text fill="#000000" stroke="none" font-family="Arial" font-size="13px" font-style="normal" font-weight="bold" text-decoration="none" x="795" y="2600">Chat</text></g></g></g></svg>